<svg xmlns="http://www.w3.org/2000/svg" viewBox="0 0 48 48" fill="none">
  <path d="M18.167 6C10.054 6 3.5 11.56 3.5 18.4c0 3.87 2.1 7.35 5.38 9.73l-1.38 4.15 4.83-2.42c1.75.58 3.63.92 5.6 1.02-.37-1.17-.57-2.4-.57-3.68 0-7.64 7.14-13.83 15.95-13.83.55 0 1.1.03 1.64.08C33.65 8.6 26.46 6 18.167 6z" fill="#51C332"/>
  <path d="M44.5 27.2c0-6.08-6.14-11.02-13.72-11.02S17.06 21.12 17.06 27.2c0 6.08 6.14 11.02 13.72 11.02 1.62 0 3.17-.22 4.63-.62l3.98 2 .02.01-1.15-3.44C41.24 34 44.5 30.85 44.5 27.2z" fill="#51C332"/>
  <circle cx="14.5" cy="16" r="1.8" fill="white"/>
  <circle cx="22" cy="16" r="1.8" fill="white"/>
  <circle cx="27" cy="25.5" r="1.5" fill="white"/>
  <circle cx="34" cy="25.5" r="1.5" fill="white"/>
</svg>
